HIERARCHY
ROOT Hips
{
	OFFSET 0.00000 0.00000 0.00000
	CHANNELS 6 Xposition Yposition Zposition Zrotation Yrotation Xrotation 
	JOINT LHipJoint
	{
		OFFSET 0 0 0
		CHANNELS 3 Zrotation Yrotation Xrotation
		JOINT LeftHip
		{
			OFFSET 1.58895 -1.83665 0.71753
			CHANNELS 3 Zrotation Yrotation Xrotation
			JOINT LeftKnee
			{
				OFFSET 2.50528 -6.88321 0.00000
				CHANNELS 3 Zrotation Yrotation Xrotation
				JOINT LeftAnkle
				{
					OFFSET 2.63244 -7.23257 0.00000
					CHANNELS 3 Zrotation Yrotation Xrotation
					JOINT LeftToe
					{
						OFFSET 0.23691 -0.65090 1.72750
						CHANNELS 3 Zrotation Yrotation Xrotation
						End Site
						{
							OFFSET 0.00000 -0.00000 0.92561
						}
					}
				}
			}
		}
	}
	JOINT RHipJoint
	{
		OFFSET 0 0 0
		CHANNELS 3 Zrotation Yrotation Xrotation
		JOINT RightHip
		{
			OFFSET -1.51435 -1.83665 0.71753
			CHANNELS 3 Zrotation Yrotation Xrotation
			JOINT RightKnee
			{
				OFFSET -2.54551 -6.99375 0.00000
				CHANNELS 3 Zrotation Yrotation Xrotation
				JOINT RightAnkle
				{
					OFFSET -2.66027 -7.30903 0.00000
					CHANNELS 3 Zrotation Yrotation Xrotation
					JOINT RightToe
					{
						OFFSET -0.22981 -0.63138 2.03959
						CHANNELS 3 Zrotation Yrotation Xrotation
						End Site
						{
							OFFSET -0.00000 -0.00000 1.07060
						}
					}
				}
			}
		}
	}
	JOINT lowerback
	{
		OFFSET 0 0 0
		CHANNELS 3 Zrotation Yrotation Xrotation
		JOINT Chest
		{
			OFFSET -0.02651 1.86275 -0.11152
			CHANNELS 3 Zrotation Yrotation Xrotation
			JOINT Chest2
			{
				OFFSET 0.01019 1.86224 0.04087
				CHANNELS 3 Zrotation Yrotation Xrotation
				JOINT lowerneck
				{
					OFFSET 0 0 0
					CHANNELS 3 Zrotation Yrotation Xrotation
					JOINT Neck
					{
						OFFSET -0.01926 1.80512 0.08867
						CHANNELS 3 Zrotation Yrotation Xrotation
						JOINT Head
						{
							OFFSET 0.05516 1.76451 -0.38475
							CHANNELS 3 Zrotation Yrotation Xrotation
							End Site
							{
								OFFSET 0.01592 1.82587 -0.14001
							}
						}
					}
				}
				JOINT LeftCollar
				{
					OFFSET 0 0 0
					CHANNELS 3 Zrotation Yrotation Xrotation
					JOINT LeftShoulder
					{
						OFFSET 3.47116 1.51376 0.14491
CHANNELS 3 Zrotation Xrotation Yrotation
						JOINT LeftElbow
						{
OFFSET 0 -4.780950 0.000000
CHANNELS 3 Zrotation Xrotation Yrotation
							JOINT LeftWrist
							{
OFFSET 0 -3.586150 -0.000000
CHANNELS 3 Zrotation Xrotation Yrotation
								JOINT lhand
								{
									OFFSET 0 0 0
CHANNELS 3 Zrotation Xrotation Yrotation
									JOINT LFingers
									{
OFFSET 0 -0.659810 0.000000
CHANNELS 3 Zrotation Xrotation Yrotation
										End Site
										{
OFFSET 0 -0.531960 0.000000
										}
									}
								}
								JOINT LThumb
								{
OFFSET 0 0.000000 0.000000
CHANNELS 3 Zrotation Xrotation Yrotation
									End Site
									{
OFFSET 0 -0.540080 0.540080
									}
								}
							}
						}
					}
				}
				JOINT RightCollar
				{
					OFFSET 0 0 0
					CHANNELS 3 Zrotation Yrotation Xrotation
					JOINT RightShoulder
					{
						OFFSET -3.31725 1.61216 0.35156
CHANNELS 3 Zrotation Xrotation Yrotation
						JOINT RightElbow
						{
OFFSET 0 -4.489130 0.000000
CHANNELS 3 Zrotation Xrotation Yrotation
							JOINT RightWrist
							{
OFFSET 0 -3.705100 0.000000
CHANNELS 3 Zrotation Xrotation Yrotation
								JOINT rhand
								{
									OFFSET 0 0 0
CHANNELS 3 Zrotation Xrotation Yrotation
									JOINT RFingers
									{
OFFSET 0 -0.449140 0.000000
CHANNELS 3 Zrotation Xrotation Yrotation
										End Site
										{
OFFSET 0 -0.362110 0.000000
										}
									}
								}
								JOINT RThumb
								{
OFFSET 0 0.000000 0.000000
CHANNELS 3 Zrotation Xrotation Yrotation
									End Site
									{
OFFSET 0 -0.367630 0.367630
									}
								}
							}
						}
					}
				}
			}
		}
	}
}
MOTION
Frames: 8
Frame Time: 0.008333333333333333
-1.030800 18.146200 5.065100 -4.939400 -6.369100 -1.950800 0.000000 0.000000 0.000000 -10.961100 1.342100 19.573000 1.043000 -6.494900 -18.227300 -1.565800 21.703800 -11.640100 0.122000 -2.251700 -6.201900 0.000000 0.000000 0.000000 0.000000 0.000000 0.000000 0.000000 0.000000 0.000000 -0.000000 -0.000000 0.000000 -0.000000 -0.000000 0.000000 2.899400 0.405100 7.064600 2.183000 0.883800 -0.513300 0.539100 0.393900 -4.490100 -1.907800 -0.266900 -7.579000 3.612900 -0.669700 14.896900 1.403200 -0.173000 5.761100 0.000000 0.000000 0.000000 -4.332700 11.825200 -20.918400 19.767600 -30.361400 5.413400 4.433800 11.984100 26.692100 0.000000 0.000000 0.000000 -7.125000 0.000000 0.000000 -15.256900 4.008200 -14.693700 0.000000 0.000000 0.000000 1.097800 15.172900 23.618100 -23.282600 -34.396400 -7.297300 -6.768100 23.891000 28.170800 0.000000 0.000000 0.000000 7.125000 0.000000 -0.000000 25.736900 56.399300 -7.542800
-1.032849 18.144386 5.038488 -4.845005 -6.200341 -2.066568 0.000000 0.000000 0.000000 -11.021867 1.378704 19.554532 1.051633 -6.520968 -18.303697 -1.561416 21.642546 -11.346099 0.129887 -2.322654 -6.398262 0.000000 0.000000 0.000000 0.000000 0.000000 0.000000 0.000000 0.000000 0.000000 0.000000 0.000000 0.000000 0.000000 0.000000 0.000000 2.694071 0.363416 7.361727 2.184289 0.819469 -0.390321 0.660693 0.367083 -4.532887 -1.932672 -0.283667 -7.721495 3.519431 -0.668864 14.753981 1.377236 -0.180096 5.740753 0.000000 0.000000 0.000000 -4.232789 11.717455 -21.021123 19.769737 -30.363957 5.414482 4.494450 11.947924 26.668046 0.000000 0.000000 0.000000 -7.125000 0.000000 0.000000 -15.221162 4.026113 -14.651344 0.000000 0.000000 0.000000 1.044000 15.187323 24.352981 -23.322960 -34.440052 -7.320091 -8.479668 24.813506 28.062621 0.000000 0.000000 0.000000 7.125000 0.000000 0.000000 23.969315 56.649185 -7.128806
-1.035795 18.144205 5.015180 -4.771960 -6.042265 -2.129018 0.000000 0.000000 0.000000 -11.051111 1.475548 19.475741 1.062298 -6.552880 -18.397391 -1.553492 21.555306 -10.988392 0.136441 -2.380911 -6.559665 0.000000 0.000000 0.000000 0.000000 0.000000 0.000000 0.000000 0.000000 0.000000 0.000000 0.000000 0.000000 0.000000 0.000000 0.000000 2.496721 0.346008 7.595819 2.201038 0.786056 -0.291465 0.791159 0.355584 -4.564789 -1.943854 -0.343904 -7.857235 3.460460 -0.736293 14.676660 1.355270 -0.216852 5.741853 0.000000 0.000000 0.000000 -4.152748 11.609394 -21.149966 19.789293 -30.387601 5.424340 4.752663 11.812007 26.853880 0.000000 0.000000 0.000000 -7.125000 0.000000 0.000000 -15.070877 3.823875 -14.554155 0.000000 0.000000 0.000000 0.926600 15.286707 25.007858 -23.472344 -34.601350 -7.404837 -10.000600 25.845242 26.636402 0.000000 0.000000 0.000000 7.125000 0.000000 0.000000 21.511197 55.645274 -5.815892
-1.037454 18.144092 4.994255 -4.767065 -5.907986 -2.100312 0.000000 0.000000 0.000000 -11.021275 1.524641 19.337418 1.071055 -6.578924 -18.473657 -1.553151 21.518100 -10.623908 0.155259 -2.538125 -6.995372 0.000000 0.000000 0.000000 0.000000 0.000000 0.000000 0.000000 0.000000 0.000000 0.000000 0.000000 0.000000 0.000000 0.000000 0.000000 2.434151 0.353059 7.688690 2.179022 0.789523 -0.201624 0.802301 0.359120 -4.523896 -2.010512 -0.370895 -7.917524 3.611282 -0.781189 14.508107 1.409695 -0.231648 5.701431 0.000000 0.000000 0.000000 -3.975840 11.400722 -21.292136 19.793898 -30.393282 5.426704 5.010135 11.693102 26.916632 0.000000 0.000000 0.000000 -7.125000 0.000000 0.000000 -14.920367 3.739918 -14.421933 0.000000 0.000000 0.000000 0.879368 15.230865 25.292578 -23.498804 -34.629701 -7.419769 -10.559343 26.258308 25.674040 0.000000 0.000000 0.000000 7.125000 0.000000 0.000000 20.367915 54.856883 -5.088301
-1.039400 18.146046 4.978401 -4.696956 -5.762429 -2.036850 0.000000 0.000000 0.000000 -11.072680 1.500266 19.200376 1.081166 -6.608990 -18.561973 -1.551675 21.484870 -10.342753 0.168987 -2.648451 -7.301515 0.000000 0.000000 0.000000 0.000000 0.000000 0.000000 0.000000 0.000000 0.000000 0.000000 0.000000 0.000000 0.000000 0.000000 0.000000 2.337490 0.378191 7.680410 2.107878 0.808312 -0.125370 0.780607 0.370728 -4.439722 -1.956852 -0.419811 -8.015880 3.697422 -0.862793 14.362011 1.421306 -0.262123 5.675293 0.000000 0.000000 0.000000 -3.718136 11.172500 -21.551502 19.842266 -30.451840 5.451187 4.979374 11.512076 26.824318 0.000000 0.000000 0.000000 -7.125000 0.000000 0.000000 -14.937616 3.831847 -14.413558 0.000000 0.000000 0.000000 0.860528 15.081189 25.377271 -23.476808 -34.606108 -7.407354 -7.558887 24.819317 27.227918 0.000000 0.000000 0.000000 7.125000 0.000000 0.000000 24.342527 55.684331 -6.743609
-1.038646 18.144727 4.964909 -4.711500 -5.624419 -2.014263 0.000000 0.000000 0.000000 -11.034180 1.509204 19.120201 1.091647 -6.639891 -18.652783 -1.547029 21.439454 -10.124625 0.172479 -2.674977 -7.375229 0.000000 0.000000 0.000000 0.000000 0.000000 0.000000 0.000000 0.000000 0.000000 0.000000 0.000000 0.000000 0.000000 0.000000 0.000000 2.358835 0.376055 7.725256 2.085616 0.806747 -0.084295 0.745397 0.369477 -4.421570 -1.860950 -0.434420 -8.079241 3.593334 -0.878159 14.317886 1.371311 -0.271463 5.672187 0.000000 0.000000 0.000000 -3.567006 10.993716 -21.602460 19.926129 -30.553265 5.493767 4.820496 11.413249 26.775121 0.000000 0.000000 0.000000 -7.125000 0.000000 0.000000 -15.030492 3.893788 -14.492072 0.000000 0.000000 0.000000 0.686397 14.985705 25.536316 -23.505008 -34.636403 -7.423339 -7.329257 24.363445 27.608094 0.000000 0.000000 0.000000 7.125000 0.000000 0.000000 24.801223 55.997159 -7.025192
-1.037678 18.146674 4.953712 -4.732745 -5.460454 -1.911468 0.000000 0.000000 0.000000 -11.003567 1.437362 18.993091 1.102840 -6.672657 -18.749084 -1.546143 21.422301 -9.963246 0.169236 -2.650484 -7.307165 0.000000 0.000000 0.000000 0.000000 0.000000 0.000000 0.000000 0.000000 0.000000 0.000000 0.000000 0.000000 0.000000 0.000000 0.000000 2.389702 0.363481 7.648299 2.091174 0.789367 -0.066764 0.736275 0.360835 -4.359713 -1.882668 -0.454291 -8.125775 3.539022 -0.893253 14.321628 1.356827 -0.283335 5.681766 0.000000 0.000000 0.000000 -3.506706 10.812122 -21.629248 20.033137 -30.682221 5.548262 4.899583 11.199218 26.550643 0.000000 0.000000 0.000000 -7.125000 0.000000 0.000000 -14.982478 4.103383 -14.381958 0.000000 0.000000 0.000000 0.369351 14.789207 25.600154 -23.386660 -34.508867 -7.356230 -7.844688 24.471447 27.618235 0.000000 0.000000 0.000000 7.125000 0.000000 0.000000 24.288476 56.118141 -6.912368
-1.036819 18.150825 4.947393 -4.744313 -5.320196 -1.758512 0.000000 0.000000 0.000000 -10.999961 1.290457 18.849688 1.112645 -6.701251 -18.833180 -1.557218 21.484193 -9.843066 0.183942 -2.762191 -7.617378 0.000000 0.000000 0.000000 0.000000 0.000000 0.000000 0.000000 0.000000 0.000000 0.000000 0.000000 0.000000 0.000000 0.000000 0.000000 2.400329 0.369050 7.531315 2.094352 0.794424 -0.100891 0.733659 0.363317 -4.329323 -1.893056 -0.489300 -8.200734 3.500197 -0.935800 14.440425 1.343779 -0.305938 5.732917 0.000000 0.000000 0.000000 -3.465560 10.646010 -21.566095 20.110585 -30.775339 5.587878 4.795937 11.159870 26.368243 0.000000 0.000000 0.000000 -7.125000 0.000000 0.000000 -15.042435 4.288737 -14.390167 0.000000 0.000000 0.000000 0.062506 14.604143 25.495912 -23.178720 -34.283684 -7.238758 -7.202331 24.447707 27.640355 0.000000 0.000000 0.000000 7.125000 0.000000 0.000000 24.935327 56.010254 -7.045897
